<?xml version="1.0" encoding="utf-8"?>
<!-- Generator: Adobe Illustrator 16.0.0, SVG Export Plug-In . SVG Version: 6.00 Build 0)  -->
<!DOCTYPE svg PUBLIC "-//W3C//DTD SVG 1.1//EN" "http://www.w3.org/Graphics/SVG/1.1/DTD/svg11.dtd">
<svg version="1.1" id="Layer_1" xmlns="http://www.w3.org/2000/svg" xmlns:xlink="http://www.w3.org/1999/xlink" x="0px" y="0px"
	 width="3277.806px" height="1318px" viewBox="0 0 3277.806 1318" enable-background="new 0 0 3277.806 1318" xml:space="preserve">
<g>
	<path fill="#202547" d="M540.35,750.739l67.065,229.853l61.049-213.644c6.525-22.358,11.36-37.615,14.501-45.788
		c3.134-8.161,9.057-15.955,17.721-23.354c8.666-7.423,20.529-11.129,35.593-11.129c15.325,0,27.314,3.706,35.989,11.129
		c8.657,7.399,14.745,15.436,18.276,24.093c3.523,8.675,8.417,23.689,14.696,45.05l61.04,213.644l67.832-229.853
		c4.515-16.58,8.154-28.581,10.926-35.981c2.769-7.416,7.415-13.938,13.951-19.596c6.521-5.652,15.944-8.485,28.251-8.485
		c12.312,0,22.984,4.288,32.029,12.817c9.046,8.543,13.578,18.586,13.578,30.14c0,10.548-3.906,26.503-11.688,47.86l-84.033,246.432
		c-7.298,20.855-12.939,35.923-16.949,45.217c-4.031,9.293-10.364,17.579-19.035,24.865c-8.657,7.27-20.531,10.935-35.611,10.935
		c-15.576,0-27.816-3.906-36.743-11.685c-8.921-7.784-15.517-17.331-19.784-28.637c-4.27-11.306-8.913-25.997-13.938-44.077
		l-58.787-200.472l-56.888,200.472c-7.535,27.88-15.699,48.916-24.487,63.111c-8.787,14.185-24.246,21.287-46.36,21.287
		c-11.284,0-20.908-2.211-28.814-6.61c-7.918-4.387-14.513-10.663-19.784-18.832c-5.278-8.152-9.941-17.834-13.948-29.009
		c-4.012-11.173-7.146-20.028-9.41-26.565l-83.282-246.432c-8.285-23.104-12.438-39.059-12.438-47.86
		c0-11.042,4.4-20.967,13.198-29.757c8.792-8.799,19.585-13.2,32.394-13.2c17.084,0,28.654,4.848,34.673,14.517
		C527.151,710.862,533.558,727.374,540.35,750.739"/>
	<path fill="#202547" d="M1380.618,921.06h-201.195c0.233,23.362,4.944,43.965,14.124,61.785c9.158,17.85,21.338,31.28,36.547,40.33
		c15.193,9.047,31.96,13.559,50.298,13.559c12.311,0,23.553-1.437,33.722-4.322c10.187-2.891,20.043-7.425,29.594-13.566
		c9.539-6.161,18.325-12.757,26.361-19.798c8.053-7.023,18.485-16.58,31.292-28.629c5.256-4.523,12.799-6.79,22.598-6.79
		c10.563,0,19.088,2.896,25.626,8.672c6.522,5.784,9.799,13.939,9.799,24.494c0,9.294-3.641,20.164-10.921,32.583
		c-7.302,12.449-18.273,24.382-32.986,35.812c-14.684,11.43-33.146,20.904-55.388,28.452c-22.241,7.533-47.786,11.302-76.668,11.302
		c-66.081,0-117.442-18.85-154.121-56.519c-36.67-37.688-55.01-88.798-55.01-153.362c0-30.388,4.507-58.599,13.553-84.597
		c9.047-26.006,22.23-48.284,39.571-66.893c17.335-18.572,38.694-32.838,64.051-42.753c25.372-9.922,53.51-14.892,84.416-14.892
		c40.186,0,74.658,8.483,103.436,25.427c28.756,16.971,50.307,38.883,64.611,65.749c14.326,26.895,21.484,54.269,21.484,82.158
		c0,25.87-7.426,42.64-22.241,50.299C1428.348,917.228,1407.511,921.06,1380.618,921.06 M1179.423,862.65h186.505
		c-2.505-35.165-11.977-61.478-28.451-78.95c-16.453-17.447-38.105-26.175-64.977-26.175c-25.626,0-46.674,8.846-63.128,26.565
		C1192.898,801.79,1182.926,827.978,1179.423,862.65"/>
	<path fill="#202547" d="M2284.214,1046.916c-24.877,19.334-48.938,33.854-72.162,43.516c-23.238,9.654-49.309,14.501-78.188,14.501
		c-26.368,0-49.556-5.203-69.518-15.639c-19.971-10.417-35.36-24.546-46.165-42.378c-10.804-17.838-16.228-37.185-16.228-58.031
		c0-28.133,8.94-52.134,26.776-71.974c17.845-19.842,42.327-33.168,73.487-39.938c6.528-1.515,22.714-4.902,48.588-10.185
		c25.874-5.267,48.055-10.102,66.525-14.491c18.463-4.402,38.491-9.737,60.099-16.028c-1.274-27.127-6.726-47.035-16.388-59.72
		c-9.676-12.684-29.718-19.032-60.126-19.032c-26.116,0-45.778,3.651-58.941,10.923c-13.191,7.303-24.497,18.22-33.941,32.795
		c-9.398,14.574-16.053,24.183-19.947,28.818c-3.91,4.658-12.259,6.977-25.072,6.977c-11.561,0-21.543-3.717-29.952-11.12
		c-8.407-7.399-12.616-16.883-12.616-28.45c0-18.082,6.408-35.658,19.221-52.752c12.806-17.082,32.783-31.145,59.902-42.208
		c27.139-11.041,60.92-16.58,101.348-16.58c45.246,0,80.787,5.35,106.661,16.021c25.873,10.689,44.14,27.573,54.826,50.683
		c10.658,23.12,16.01,53.763,16.01,91.938c0,24.115-0.072,44.593-0.195,61.432c-0.125,16.817-0.321,35.534-0.562,56.137
		c0,19.337,3.202,39.506,9.609,60.477c6.408,20.979,9.617,34.483,9.617,40.497c0,10.553-4.965,20.161-14.896,28.83
		c-9.922,8.654-21.163,12.999-33.72,12.999c-10.559,0-20.969-4.964-31.271-14.875
		C2306.681,1080.142,2295.753,1065.757,2284.214,1046.916 M2277.429,898.067c-15.077,5.529-36.998,11.374-65.746,17.532
		c-28.78,6.159-48.684,10.668-59.729,13.547c-11.059,2.901-21.614,8.555-31.646,16.971c-10.062,8.409-15.085,20.155-15.085,35.232
		c0,15.572,5.904,28.818,17.706,39.753c11.815,10.922,27.258,16.393,46.346,16.393c20.342,0,39.131-4.473,56.34-13.389
		c17.213-8.907,29.828-20.406,37.857-34.471c9.305-15.573,13.957-41.2,13.957-76.878V898.067z"/>
	<path fill="#202547" d="M2814,970.416c0,28.38-6.907,52.692-20.742,72.906c-13.802,20.227-34.222,35.555-61.218,45.974
		c-27.01,10.434-59.857,15.637-98.537,15.637c-36.917,0-68.579-5.635-94.94-16.953c-26.392-11.31-45.86-25.427-58.417-42.389
		c-12.564-16.96-18.85-33.966-18.85-51.054c0-11.31,4.019-20.966,12.065-29.013c8.035-8.054,18.221-12.062,30.524-12.062
		c10.783,0,19.082,2.64,24.861,7.906c5.783,5.282,11.314,12.693,16.57,22.245c10.557,18.326,23.195,32.019,37.878,41.068
		c14.707,9.031,34.722,13.563,60.099,13.563c20.596,0,37.508-4.576,50.691-13.752c13.192-9.163,19.766-19.654,19.766-31.466
		c0-18.08-6.843-31.284-20.521-39.564c-13.688-8.294-36.249-16.202-67.647-23.736c-35.405-8.799-64.234-18.023-86.475-27.706
		c-22.219-9.663-39.998-22.418-53.314-38.235c-13.314-15.829-19.97-35.29-19.97-58.407c0-20.59,6.152-40.066,18.471-58.406
		c12.304-18.326,30.445-32.973,54.435-43.892c23.994-10.936,52.949-16.408,86.854-16.408c26.637,0,50.553,2.771,71.812,8.297
		c21.205,5.541,38.919,12.941,53.107,22.235c14.182,9.292,25,19.59,32.397,30.896c7.418,11.305,11.117,22.358,11.117,33.154
		c0,11.819-3.953,21.472-11.859,29.024c-7.914,7.536-19.168,11.301-33.729,11.301c-10.556,0-19.54-3.015-26.944-9.048
		c-7.41-6.026-15.885-15.072-25.438-27.125c-7.789-10.053-16.953-18.094-27.497-24.119c-10.549-6.02-24.876-9.045-42.966-9.045
		c-18.572,0-34.029,3.964-46.34,11.869c-12.312,7.921-18.469,17.773-18.469,29.579c0,10.805,4.527,19.668,13.568,26.565
		c9.05,6.91,21.23,12.625,36.555,17.154c15.324,4.515,36.422,10.041,63.301,16.58c31.902,7.79,57.966,17.082,78.184,27.875
		c20.23,10.804,35.549,23.547,45.98,38.247C2808.772,934.81,2814,951.571,2814,970.416"/>
	<path fill="#202547" d="M3188.151,921.06h-201.195c0.232,23.362,4.95,43.965,14.115,61.785c9.182,17.85,21.354,31.28,36.554,40.33
		c15.194,9.047,31.96,13.559,50.314,13.559c12.296,0,23.544-1.437,33.7-4.322c10.186-2.891,20.064-7.425,29.593-13.566
		c9.544-6.161,18.347-12.757,26.377-19.798c8.03-7.023,18.47-16.58,31.282-28.629c5.271-4.523,12.807-6.79,22.592-6.79
		c10.555,0,19.096,2.896,25.633,8.672c6.53,5.784,9.801,13.939,9.801,24.494c0,9.294-3.656,20.164-10.922,32.583
		c-7.302,12.449-18.288,24.382-32.979,35.812c-14.699,11.43-33.168,20.904-55.39,28.452c-22.241,7.533-47.786,11.302-76.689,11.302
		c-66.066,0-117.429-18.85-154.099-56.519c-36.663-37.688-55.031-88.798-55.031-153.362c0-30.388,4.529-58.599,13.578-84.597
		c9.041-26.006,22.227-48.284,39.568-66.893c17.333-18.572,38.671-32.838,64.05-42.753c25.364-9.922,53.51-14.892,84.407-14.892
		c40.193,0,74.666,8.483,103.438,25.427c28.74,16.971,50.305,38.883,64.618,65.749c14.313,26.895,21.476,54.269,21.476,82.158
		c0,25.87-7.416,42.64-22.24,50.299C3235.887,917.228,3215.044,921.06,3188.151,921.06 M2986.956,862.65h186.52
		c-2.52-35.165-12.006-61.478-28.467-78.95c-16.439-17.447-38.104-26.175-64.998-26.175c-25.618,0-46.659,8.846-63.098,26.565
		C3000.444,801.79,2990.464,827.978,2986.956,862.65"/>
	<path fill="#EB1F4F" d="M1920.395,782.206c-14.183-30.771-34.152-54.26-59.925-70.464c-25.734-16.202-55.701-24.309-89.844-24.309
		c-29.667,0-54.508,5.344-74.623,16.024c-20.092,10.668-39.823,26.064-59.143,46.16V543.886c0-5.809-0.547-11.062-1.355-16.045
		c-4.812-83.955-29.259-162.772-73.887-235.096c-70.573-114.375-164.183-187.529-278.227-217.408
		c-273.229-71.567-486.207,22.438-619.473,272.2c-77.798-59.509-173.355-73.356-261.846-34.932
		c-45.007,19.57-82.332,52.484-107.91,95.196c-27.195,45.437-39.008,93.179-35.313,142.435
		C127.345,590.562,24.748,710.121,6.479,847.034c-13.996,104.836,18.091,210.765,88.043,290.623
		c69.96,79.886,170.791,125.673,276.69,125.659h0.223c198.174-0.102,396.327-0.4,594.493-0.71
		c212.01-0.311,287.469-0.619,499.477-0.699v-97.177c-212.043,0.08-287.575,0.4-499.614,0.725
		c-198.137,0.283-396.272,0.582-594.409,0.699h-0.169c-77.879,0-152.094-33.71-203.586-92.521
		c-51.486-58.779-75.12-136.689-64.83-213.739c13.938-104.377,94.981-194.931,197.057-220.23l74.447-18.719l-13.188-47.908
		c-11.172-40.48-5.784-78.215,16.429-115.325c15.299-25.548,36.593-44.377,63.264-55.978c13.76-5.987,36.528-13.457,64.216-13.457
		c39.422,0,88.865,15.194,136.445,71.593l50.2,59.53l31.392-71.279c111.343-252.846,286.578-344.07,535.691-278.785
		c89.095,23.333,163.163,82.015,220.175,174.427c39.611,64.2,59.624,135.007,60.374,211.026h0.344v491.369
		c0,19.348,4.338,33.978,13.001,43.896c8.671,9.927,20.276,14.889,34.843,14.889c14.329,0,26.115-4.962,35.419-14.889
		c9.282-9.918,13.957-24.548,13.957-43.896v-10.185c11.283,13.071,20.405,22.867,27.313,29.404
		c6.909,6.52,15.268,12.868,25.052,19.024c9.806,6.155,21.681,11.115,35.601,14.879c13.935,3.771,28.829,5.661,44.656,5.661
		c25.873,0,49.556-5.213,71.024-15.639c21.485-10.421,39.767-25.196,54.843-44.284c15.063-19.092,26.552-41.628,34.479-67.627
		c7.893-26.005,11.86-54.586,11.86-85.725C1941.688,849.452,1934.582,812.975,1920.395,782.206 M1810.362,991.703
		c-18.696,22.492-41.003,33.732-66.876,33.732c-30.396,0-54.952-10.993-73.67-32.968c-18.703-21.99-28.073-53.456-28.073-94.396
		c0-27.886,4.398-51.924,13.2-72.153c8.788-20.231,20.828-35.67,36.16-46.358c15.333-10.665,32.783-16.003,52.383-16.003
		c19.088,0,35.802,5.338,50.116,16.003c14.312,10.688,25.363,25.814,33.168,45.419c7.783,19.579,11.663,42.944,11.663,70.083
		C1838.434,937.005,1829.078,969.221,1810.362,991.703"/>
	<path fill="#EB1F4F" d="M1554.113,1261.543v-22.231c9.755,4.002,17.916,6.004,24.563,6.004c3.844,0,6.895-0.743,9.13-2.247
		c2.229-1.487,3.356-3.483,3.356-5.958c0-1.912-0.91-3.698-2.687-5.362c-1.813-1.67-4.892-3.698-9.283-6.083
		c-10.644-5.706-18.316-11.021-23.107-15.95c-4.745-4.937-7.141-10.426-7.141-16.463c0-8.238,3.69-14.965,11.051-20.146
		c7.367-5.191,16.905-7.778,28.619-7.778c8.669,0,17.26,1.297,25.779,3.932v21.356c-9.146-3.543-16.549-5.294-22.228-5.294
		c-3.8,0-6.784,0.653-8.976,1.97c-2.206,1.295-3.299,3.105-3.299,5.389c0,3.997,5.09,8.487,15.311,13.496
		c6.093,2.944,12.26,7.113,18.535,12.464c6.231,5.35,9.37,11.551,9.37,18.607c0,8.242-4.1,15.07-12.282,20.464
		c-8.168,5.411-18.564,8.106-31.13,8.106C1571.111,1265.818,1562.579,1264.381,1554.113,1261.543"/>
	<path fill="#EB1F4F" d="M1797.293,1265.678c-16.373,0-28.852-4.411-37.448-13.258c-8.584-8.823-12.881-21.586-12.881-38.258
		c0-15.367,4.312-27.362,12.938-35.957c8.626-8.593,20.639-12.889,36.058-12.889c16.433,0,29.005,4.308,37.69,12.937
		c8.692,8.604,13.023,20.935,13.023,36.919c0,16.006-4.258,28.425-12.82,37.248
		C1825.293,1261.267,1813.105,1265.678,1797.293,1265.678 M1796.164,1186.962c-11.088,0-16.635,9.154-16.635,27.511
		c0,11.8,1.412,19.67,4.194,23.624c2.817,3.954,6.9,5.926,12.236,5.926c5.752,0,10.164-1.972,13.235-5.926
		c3.081-3.954,4.616-11.688,4.616-23.202C1813.812,1196.275,1807.937,1186.962,1796.164,1186.962"/>
	<polygon fill="#EB1F4F" points="1977.55,1167.963 2008.302,1167.963 2008.302,1241.249 2032.64,1241.249 2032.64,1263.316 
		1977.55,1263.316 	"/>
	<path fill="#EB1F4F" d="M2158.841,1167.963h31.554v67.146c0,3.127,1.192,5.622,3.538,7.457c2.371,1.847,5.561,2.763,9.544,2.763
		c4.128,0,7.405-0.986,9.784-2.934c2.41-1.951,3.611-4.651,3.611-8.081v-66.352h31.341v62.574c0,8.526-1.579,15.354-4.753,20.496
		c-3.175,5.144-7.863,8.916-14.059,11.322c-6.188,2.404-14.822,3.607-25.925,3.607c-16.373,0-27.897-2.943-34.588-8.858
		c-6.69-5.899-10.048-15.877-10.048-29.925V1167.963z"/>
	<polygon fill="#EB1F4F" points="2373.905,1167.963 2447.246,1167.963 2447.246,1189.733 2426.04,1189.733 2426.04,1263.316 
		2394.909,1263.316 2394.909,1189.733 2373.905,1189.733 	"/>
	<rect x="2575.487" y="1167.963" fill="#EB1F4F" width="30.729" height="95.354"/>
	<path fill="#EB1F4F" d="M2788.425,1265.678c-16.373,0-28.852-4.411-37.436-13.258c-8.59-8.823-12.887-21.586-12.887-38.258
		c0-15.367,4.318-27.362,12.938-35.957c8.612-8.593,20.632-12.889,36.052-12.889c16.431,0,29.005,4.308,37.689,12.937
		c8.7,8.604,13.025,20.935,13.025,36.919c0,16.006-4.26,28.425-12.821,37.248
		C2816.433,1261.267,2804.237,1265.678,2788.425,1265.678 M2787.304,1186.962c-11.096,0-16.636,9.154-16.636,27.511
		c0,11.8,1.406,19.67,4.201,23.624c2.818,3.954,6.872,5.926,12.224,5.926c5.759,0,10.162-1.972,13.236-5.926
		c3.086-3.954,4.622-11.688,4.622-23.202C2804.951,1196.275,2799.069,1186.962,2787.304,1186.962"/>
	<polygon fill="#EB1F4F" points="2968.674,1167.963 2999.725,1167.963 3038.782,1222.95 3037.661,1212.687 3037.661,1167.963 
		3068.406,1167.963 3068.406,1263.316 3036.847,1263.316 2998.61,1209.177 2999.412,1221.024 2999.412,1263.316 2968.674,1263.316 	
		"/>
	<path fill="#EB1F4F" d="M3205.559,1261.543v-22.231c9.739,4.002,17.915,6.004,24.555,6.004c3.845,0,6.896-0.743,9.13-2.247
		c2.219-1.487,3.342-3.483,3.342-5.958c0-1.912-0.889-3.698-2.679-5.362c-1.806-1.67-4.892-3.698-9.283-6.083
		c-10.644-5.706-18.315-11.021-23.101-15.95c-4.753-4.937-7.147-10.426-7.147-16.463c0-8.238,3.689-14.965,11.059-20.146
		c7.366-5.191,16.913-7.778,28.61-7.778c8.672,0,17.254,1.297,25.781,3.932v21.356c-9.146-3.543-16.542-5.294-22.213-5.294
		c-3.809,0-6.787,0.653-8.984,1.97c-2.206,1.295-3.291,3.105-3.291,5.389c0,3.997,5.088,8.487,15.311,13.496
		c6.078,2.944,12.246,7.113,18.514,12.464c6.246,5.35,9.384,11.551,9.384,18.607c0,8.242-4.098,15.07-12.281,20.464
		c-8.167,5.411-18.564,8.106-31.131,8.106C3222.536,1265.818,3214.009,1264.381,3205.559,1261.543"/>
</g>
</svg>
